<mxfile host="app.diagrams.net" modified="2024-04-26T16:10:16.879Z" agent="Mozilla/5.0 (Windows NT 10.0; Win64; x64) AppleWebKit/537.36 (KHTML, like Gecko) Chrome/124.0.0.0 Safari/537.36" etag="ZLq8vd6WMOjNm9rxwywx" version="24.3.0" type="github" pages="2">
  <diagram name="Trang-1" id="rRTdI2hDu67PqyDLe8Fh">
    <mxGraphModel dx="1348" dy="522" grid="1" gridSize="10" guides="1" tooltips="1" connect="1" arrows="1" fold="1" page="1" pageScale="1" pageWidth="827" pageHeight="1169" math="0" shadow="0">
      <root>
        <mxCell id="0" />
        <mxCell id="1" parent="0" />
        <mxCell id="AFnKg5yaAj6XT0c0CYOe-55" style="edgeStyle=orthogonalEdgeStyle;rounded=0;orthogonalLoop=1;jettySize=auto;html=1;exitX=0.5;exitY=1;exitDx=0;exitDy=0;entryX=0.5;entryY=0;entryDx=0;entryDy=0;" parent="1" source="AFnKg5yaAj6XT0c0CYOe-12" target="AFnKg5yaAj6XT0c0CYOe-33" edge="1">
          <mxGeometry relative="1" as="geometry" />
        </mxCell>
        <mxCell id="AFnKg5yaAj6XT0c0CYOe-56" style="edgeStyle=orthogonalEdgeStyle;rounded=0;orthogonalLoop=1;jettySize=auto;html=1;exitX=0.5;exitY=1;exitDx=0;exitDy=0;entryX=0.5;entryY=0;entryDx=0;entryDy=0;" parent="1" source="AFnKg5yaAj6XT0c0CYOe-12" target="AFnKg5yaAj6XT0c0CYOe-34" edge="1">
          <mxGeometry relative="1" as="geometry" />
        </mxCell>
        <mxCell id="AFnKg5yaAj6XT0c0CYOe-57" style="edgeStyle=orthogonalEdgeStyle;rounded=0;orthogonalLoop=1;jettySize=auto;html=1;exitX=0.5;exitY=1;exitDx=0;exitDy=0;entryX=0.5;entryY=0;entryDx=0;entryDy=0;" parent="1" source="AFnKg5yaAj6XT0c0CYOe-12" target="AFnKg5yaAj6XT0c0CYOe-35" edge="1">
          <mxGeometry relative="1" as="geometry" />
        </mxCell>
        <mxCell id="AFnKg5yaAj6XT0c0CYOe-58" style="edgeStyle=orthogonalEdgeStyle;rounded=0;orthogonalLoop=1;jettySize=auto;html=1;exitX=0.5;exitY=1;exitDx=0;exitDy=0;" parent="1" source="AFnKg5yaAj6XT0c0CYOe-12" target="AFnKg5yaAj6XT0c0CYOe-36" edge="1">
          <mxGeometry relative="1" as="geometry" />
        </mxCell>
        <mxCell id="AFnKg5yaAj6XT0c0CYOe-12" value="&lt;font style=&quot;font-size: 20px;&quot;&gt;&lt;span style=&quot;font-size: 20px;&quot;&gt;Quản lý hệ thống của hàng bán sách&lt;/span&gt;&lt;/font&gt;" style="rounded=0;whiteSpace=wrap;html=1;fontSize=20;fontStyle=1" parent="1" vertex="1">
          <mxGeometry x="320" width="200" height="80" as="geometry" />
        </mxCell>
        <mxCell id="vAM1ASB7F_F03bIMXwyB-12" style="edgeStyle=orthogonalEdgeStyle;rounded=0;orthogonalLoop=1;jettySize=auto;html=1;entryX=0;entryY=0.5;entryDx=0;entryDy=0;" parent="1" source="AFnKg5yaAj6XT0c0CYOe-33" target="vAM1ASB7F_F03bIMXwyB-2" edge="1">
          <mxGeometry relative="1" as="geometry">
            <Array as="points">
              <mxPoint x="-60" y="200" />
              <mxPoint x="-60" y="440" />
            </Array>
          </mxGeometry>
        </mxCell>
        <mxCell id="vAM1ASB7F_F03bIMXwyB-13" style="edgeStyle=orthogonalEdgeStyle;rounded=0;orthogonalLoop=1;jettySize=auto;html=1;entryX=0;entryY=0.5;entryDx=0;entryDy=0;" parent="1" source="AFnKg5yaAj6XT0c0CYOe-33" target="vAM1ASB7F_F03bIMXwyB-3" edge="1">
          <mxGeometry relative="1" as="geometry">
            <Array as="points">
              <mxPoint x="-60" y="200" />
              <mxPoint x="-60" y="560" />
            </Array>
          </mxGeometry>
        </mxCell>
        <mxCell id="AFnKg5yaAj6XT0c0CYOe-33" value="Nhập Hàng" style="rounded=0;whiteSpace=wrap;html=1;fontSize=16;" parent="1" vertex="1">
          <mxGeometry x="-20" y="160" width="160" height="80" as="geometry" />
        </mxCell>
        <mxCell id="vAM1ASB7F_F03bIMXwyB-28" style="edgeStyle=orthogonalEdgeStyle;rounded=0;orthogonalLoop=1;jettySize=auto;html=1;entryX=0;entryY=0.5;entryDx=0;entryDy=0;exitX=0;exitY=0.5;exitDx=0;exitDy=0;" parent="1" source="AFnKg5yaAj6XT0c0CYOe-34" target="vAM1ASB7F_F03bIMXwyB-19" edge="1">
          <mxGeometry relative="1" as="geometry">
            <Array as="points">
              <mxPoint x="180" y="200" />
              <mxPoint x="180" y="320" />
            </Array>
          </mxGeometry>
        </mxCell>
        <mxCell id="vAM1ASB7F_F03bIMXwyB-29" style="edgeStyle=orthogonalEdgeStyle;rounded=0;orthogonalLoop=1;jettySize=auto;html=1;entryX=0;entryY=0.5;entryDx=0;entryDy=0;" parent="1" source="AFnKg5yaAj6XT0c0CYOe-34" target="vAM1ASB7F_F03bIMXwyB-16" edge="1">
          <mxGeometry relative="1" as="geometry">
            <Array as="points">
              <mxPoint x="180" y="200" />
              <mxPoint x="180" y="440" />
            </Array>
          </mxGeometry>
        </mxCell>
        <mxCell id="vAM1ASB7F_F03bIMXwyB-30" style="edgeStyle=orthogonalEdgeStyle;rounded=0;orthogonalLoop=1;jettySize=auto;html=1;entryX=0;entryY=0.5;entryDx=0;entryDy=0;" parent="1" source="AFnKg5yaAj6XT0c0CYOe-34" target="vAM1ASB7F_F03bIMXwyB-18" edge="1">
          <mxGeometry relative="1" as="geometry">
            <Array as="points">
              <mxPoint x="180" y="200" />
              <mxPoint x="180" y="560" />
            </Array>
          </mxGeometry>
        </mxCell>
        <mxCell id="AFnKg5yaAj6XT0c0CYOe-34" value="Bán hàng" style="rounded=0;whiteSpace=wrap;html=1;fontSize=16;" parent="1" vertex="1">
          <mxGeometry x="220" y="160" width="160" height="80" as="geometry" />
        </mxCell>
        <mxCell id="vAM1ASB7F_F03bIMXwyB-31" style="edgeStyle=orthogonalEdgeStyle;rounded=0;orthogonalLoop=1;jettySize=auto;html=1;entryX=0;entryY=0.5;entryDx=0;entryDy=0;" parent="1" source="AFnKg5yaAj6XT0c0CYOe-35" target="vAM1ASB7F_F03bIMXwyB-22" edge="1">
          <mxGeometry relative="1" as="geometry">
            <Array as="points">
              <mxPoint x="420" y="200" />
              <mxPoint x="420" y="320" />
            </Array>
          </mxGeometry>
        </mxCell>
        <mxCell id="vAM1ASB7F_F03bIMXwyB-32" style="edgeStyle=orthogonalEdgeStyle;rounded=0;orthogonalLoop=1;jettySize=auto;html=1;entryX=0;entryY=0.5;entryDx=0;entryDy=0;" parent="1" source="AFnKg5yaAj6XT0c0CYOe-35" target="vAM1ASB7F_F03bIMXwyB-21" edge="1">
          <mxGeometry relative="1" as="geometry">
            <Array as="points">
              <mxPoint x="420" y="200" />
              <mxPoint x="420" y="440" />
            </Array>
          </mxGeometry>
        </mxCell>
        <mxCell id="AFnKg5yaAj6XT0c0CYOe-35" value="Quản lý kho" style="rounded=0;whiteSpace=wrap;html=1;fontSize=16;" parent="1" vertex="1">
          <mxGeometry x="460" y="160" width="160" height="80" as="geometry" />
        </mxCell>
        <mxCell id="vAM1ASB7F_F03bIMXwyB-33" style="edgeStyle=orthogonalEdgeStyle;rounded=0;orthogonalLoop=1;jettySize=auto;html=1;entryX=0;entryY=0.5;entryDx=0;entryDy=0;" parent="1" source="AFnKg5yaAj6XT0c0CYOe-36" target="vAM1ASB7F_F03bIMXwyB-25" edge="1">
          <mxGeometry relative="1" as="geometry">
            <Array as="points">
              <mxPoint x="660" y="200" />
              <mxPoint x="660" y="320" />
            </Array>
          </mxGeometry>
        </mxCell>
        <mxCell id="vAM1ASB7F_F03bIMXwyB-34" style="edgeStyle=orthogonalEdgeStyle;rounded=0;orthogonalLoop=1;jettySize=auto;html=1;entryX=0;entryY=0.5;entryDx=0;entryDy=0;" parent="1" source="AFnKg5yaAj6XT0c0CYOe-36" target="vAM1ASB7F_F03bIMXwyB-24" edge="1">
          <mxGeometry relative="1" as="geometry">
            <Array as="points">
              <mxPoint x="660" y="200" />
              <mxPoint x="660" y="440" />
            </Array>
          </mxGeometry>
        </mxCell>
        <mxCell id="AFnKg5yaAj6XT0c0CYOe-36" value="Báo cáo thống kê" style="rounded=0;whiteSpace=wrap;html=1;fontSize=16;" parent="1" vertex="1">
          <mxGeometry x="700" y="160" width="160" height="80" as="geometry" />
        </mxCell>
        <mxCell id="vAM1ASB7F_F03bIMXwyB-1" value="Lập phiếu nhập" style="rounded=0;whiteSpace=wrap;html=1;" parent="1" vertex="1">
          <mxGeometry x="20" y="280" width="120" height="80" as="geometry" />
        </mxCell>
        <mxCell id="vAM1ASB7F_F03bIMXwyB-2" value="Kiểm tra chất lượng" style="rounded=0;whiteSpace=wrap;html=1;" parent="1" vertex="1">
          <mxGeometry x="20" y="400" width="120" height="80" as="geometry" />
        </mxCell>
        <mxCell id="vAM1ASB7F_F03bIMXwyB-3" value="Thanh toán" style="rounded=0;whiteSpace=wrap;html=1;" parent="1" vertex="1">
          <mxGeometry x="20" y="520" width="120" height="80" as="geometry" />
        </mxCell>
        <mxCell id="vAM1ASB7F_F03bIMXwyB-8" value="" style="endArrow=classic;html=1;rounded=0;entryX=0;entryY=0.5;entryDx=0;entryDy=0;exitX=0;exitY=0.5;exitDx=0;exitDy=0;" parent="1" source="AFnKg5yaAj6XT0c0CYOe-33" target="vAM1ASB7F_F03bIMXwyB-1" edge="1">
          <mxGeometry width="50" height="50" relative="1" as="geometry">
            <mxPoint x="370" y="360" as="sourcePoint" />
            <mxPoint x="420" y="310" as="targetPoint" />
            <Array as="points">
              <mxPoint x="-60" y="200" />
              <mxPoint x="-60" y="320" />
            </Array>
          </mxGeometry>
        </mxCell>
        <mxCell id="vAM1ASB7F_F03bIMXwyB-16" value="Lập phiếu xuất" style="rounded=0;whiteSpace=wrap;html=1;" parent="1" vertex="1">
          <mxGeometry x="260" y="400" width="120" height="80" as="geometry" />
        </mxCell>
        <mxCell id="vAM1ASB7F_F03bIMXwyB-17" value="Lập phiếu nhập" style="rounded=0;whiteSpace=wrap;html=1;" parent="1" vertex="1">
          <mxGeometry x="260" y="520" width="120" height="80" as="geometry" />
        </mxCell>
        <mxCell id="vAM1ASB7F_F03bIMXwyB-18" value="Lập hoá đơn xuất" style="rounded=0;whiteSpace=wrap;html=1;" parent="1" vertex="1">
          <mxGeometry x="260" y="520" width="120" height="80" as="geometry" />
        </mxCell>
        <mxCell id="vAM1ASB7F_F03bIMXwyB-19" value="Tiếp nhận đơn" style="rounded=0;whiteSpace=wrap;html=1;" parent="1" vertex="1">
          <mxGeometry x="260" y="280" width="120" height="80" as="geometry" />
        </mxCell>
        <mxCell id="vAM1ASB7F_F03bIMXwyB-20" value="Lập phiếu nhập" style="rounded=0;whiteSpace=wrap;html=1;" parent="1" vertex="1">
          <mxGeometry x="500" y="280" width="120" height="80" as="geometry" />
        </mxCell>
        <mxCell id="vAM1ASB7F_F03bIMXwyB-21" value="Quản lý nhập, xuất" style="rounded=0;whiteSpace=wrap;html=1;" parent="1" vertex="1">
          <mxGeometry x="500" y="400" width="120" height="80" as="geometry" />
        </mxCell>
        <mxCell id="vAM1ASB7F_F03bIMXwyB-22" value="Quản lý chất lượng + Số lượng" style="rounded=0;whiteSpace=wrap;html=1;" parent="1" vertex="1">
          <mxGeometry x="500" y="280" width="120" height="80" as="geometry" />
        </mxCell>
        <mxCell id="vAM1ASB7F_F03bIMXwyB-23" value="Lập phiếu nhập" style="rounded=0;whiteSpace=wrap;html=1;" parent="1" vertex="1">
          <mxGeometry x="740" y="280" width="120" height="80" as="geometry" />
        </mxCell>
        <mxCell id="vAM1ASB7F_F03bIMXwyB-24" value="Thống kê doanh thu, lợi nhuận" style="rounded=0;whiteSpace=wrap;html=1;" parent="1" vertex="1">
          <mxGeometry x="740" y="400" width="120" height="80" as="geometry" />
        </mxCell>
        <mxCell id="vAM1ASB7F_F03bIMXwyB-25" value="Thống kê hàng đã bán, bán chạy" style="rounded=0;whiteSpace=wrap;html=1;" parent="1" vertex="1">
          <mxGeometry x="740" y="280" width="120" height="80" as="geometry" />
        </mxCell>
      </root>
    </mxGraphModel>
  </diagram>
  <diagram id="KgvOnMce2TrPyuINwso0" name="Trang-2">
    <mxGraphModel dx="1290" dy="522" grid="1" gridSize="10" guides="1" tooltips="1" connect="1" arrows="1" fold="1" page="1" pageScale="1" pageWidth="827" pageHeight="1169" math="0" shadow="0">
      <root>
        <mxCell id="0" />
        <mxCell id="1" parent="0" />
        <mxCell id="ssV_oemt4YwEF67fhfRM-25" style="edgeStyle=orthogonalEdgeStyle;rounded=0;orthogonalLoop=1;jettySize=auto;html=1;entryX=0.5;entryY=1;entryDx=0;entryDy=0;" edge="1" parent="1" source="ssV_oemt4YwEF67fhfRM-2" target="ssV_oemt4YwEF67fhfRM-3">
          <mxGeometry relative="1" as="geometry">
            <Array as="points">
              <mxPoint x="140" y="460" />
            </Array>
          </mxGeometry>
        </mxCell>
        <mxCell id="ssV_oemt4YwEF67fhfRM-26" value="&lt;font style=&quot;font-size: 14px;&quot;&gt;Hoá đơn&lt;/font&gt;" style="edgeLabel;html=1;align=center;verticalAlign=middle;resizable=0;points=[];" vertex="1" connectable="0" parent="ssV_oemt4YwEF67fhfRM-25">
          <mxGeometry x="-0.3297" y="-1" relative="1" as="geometry">
            <mxPoint as="offset" />
          </mxGeometry>
        </mxCell>
        <mxCell id="ssV_oemt4YwEF67fhfRM-38" style="edgeStyle=orthogonalEdgeStyle;rounded=0;orthogonalLoop=1;jettySize=auto;html=1;entryX=1;entryY=0.25;entryDx=0;entryDy=0;" edge="1" parent="1" source="ssV_oemt4YwEF67fhfRM-2" target="ssV_oemt4YwEF67fhfRM-6">
          <mxGeometry relative="1" as="geometry">
            <Array as="points">
              <mxPoint x="370" y="700" />
            </Array>
          </mxGeometry>
        </mxCell>
        <mxCell id="ssV_oemt4YwEF67fhfRM-39" value="&lt;font style=&quot;font-size: 14px;&quot;&gt;Bản báo cáo doanh số&lt;/font&gt;" style="edgeLabel;html=1;align=center;verticalAlign=middle;resizable=0;points=[];" vertex="1" connectable="0" parent="ssV_oemt4YwEF67fhfRM-38">
          <mxGeometry x="0.3454" y="2" relative="1" as="geometry">
            <mxPoint as="offset" />
          </mxGeometry>
        </mxCell>
        <mxCell id="ssV_oemt4YwEF67fhfRM-42" style="edgeStyle=orthogonalEdgeStyle;rounded=0;orthogonalLoop=1;jettySize=auto;html=1;entryX=0.023;entryY=0.15;entryDx=0;entryDy=0;entryPerimeter=0;" edge="1" parent="1" source="ssV_oemt4YwEF67fhfRM-2" target="ssV_oemt4YwEF67fhfRM-4">
          <mxGeometry relative="1" as="geometry">
            <Array as="points">
              <mxPoint x="460" y="290" />
              <mxPoint x="680" y="290" />
              <mxPoint x="680" y="292" />
            </Array>
          </mxGeometry>
        </mxCell>
        <mxCell id="ssV_oemt4YwEF67fhfRM-43" value="&lt;font style=&quot;font-size: 14px;&quot;&gt;Phiếu đặt hàng&lt;/font&gt;" style="edgeLabel;html=1;align=center;verticalAlign=middle;resizable=0;points=[];" vertex="1" connectable="0" parent="ssV_oemt4YwEF67fhfRM-42">
          <mxGeometry x="0.3773" y="1" relative="1" as="geometry">
            <mxPoint as="offset" />
          </mxGeometry>
        </mxCell>
        <mxCell id="ssV_oemt4YwEF67fhfRM-2" value="&lt;span style=&quot;font-size: 20px; font-weight: 700;&quot;&gt;Quản lý hệ thống của hàng bán sách&lt;/span&gt;" style="ellipse;whiteSpace=wrap;html=1;" vertex="1" parent="1">
          <mxGeometry x="300" y="440" width="280" height="160" as="geometry" />
        </mxCell>
        <mxCell id="ssV_oemt4YwEF67fhfRM-3" value="&#xa;&lt;span style=&quot;color: rgb(0, 0, 0); font-family: Helvetica; font-size: 18px; font-style: normal; font-variant-ligatures: normal; font-variant-caps: normal; font-weight: 400; letter-spacing: normal; orphans: 2; text-align: center; text-indent: 0px; text-transform: none; widows: 2; word-spacing: 0px; -webkit-text-stroke-width: 0px; white-space: normal; background-color: rgb(251, 251, 251); text-decoration-thickness: initial; text-decoration-style: initial; text-decoration-color: initial; display: inline !important; float: none;&quot;&gt;Khách hàng&lt;/span&gt;&#xa;&#xa;" style="rounded=0;whiteSpace=wrap;html=1;" vertex="1" parent="1">
          <mxGeometry x="80" y="280" width="120" height="80" as="geometry" />
        </mxCell>
        <mxCell id="ssV_oemt4YwEF67fhfRM-48" style="edgeStyle=orthogonalEdgeStyle;rounded=0;orthogonalLoop=1;jettySize=auto;html=1;exitX=0.25;exitY=1;exitDx=0;exitDy=0;entryX=1;entryY=0;entryDx=0;entryDy=0;" edge="1" parent="1" source="ssV_oemt4YwEF67fhfRM-4" target="ssV_oemt4YwEF67fhfRM-2">
          <mxGeometry relative="1" as="geometry">
            <Array as="points">
              <mxPoint x="710" y="464" />
            </Array>
          </mxGeometry>
        </mxCell>
        <mxCell id="ssV_oemt4YwEF67fhfRM-49" value="&lt;font style=&quot;font-size: 14px;&quot;&gt;Hoá đơn&lt;/font&gt;" style="edgeLabel;html=1;align=center;verticalAlign=middle;resizable=0;points=[];" vertex="1" connectable="0" parent="ssV_oemt4YwEF67fhfRM-48">
          <mxGeometry x="0.416" y="1" relative="1" as="geometry">
            <mxPoint as="offset" />
          </mxGeometry>
        </mxCell>
        <mxCell id="ssV_oemt4YwEF67fhfRM-4" value="&lt;font style=&quot;font-size: 18px;&quot;&gt;Nhà cung cấp&lt;/font&gt;" style="rounded=0;whiteSpace=wrap;html=1;" vertex="1" parent="1">
          <mxGeometry x="680" y="280" width="120" height="80" as="geometry" />
        </mxCell>
        <mxCell id="ssV_oemt4YwEF67fhfRM-5" value="&lt;span style=&quot;font-size: 18px;&quot;&gt;Nhân viên&lt;/span&gt;" style="rounded=0;whiteSpace=wrap;html=1;" vertex="1" parent="1">
          <mxGeometry x="680" y="680" width="120" height="80" as="geometry" />
        </mxCell>
        <mxCell id="ssV_oemt4YwEF67fhfRM-35" style="edgeStyle=orthogonalEdgeStyle;rounded=0;orthogonalLoop=1;jettySize=auto;html=1;" edge="1" parent="1" source="ssV_oemt4YwEF67fhfRM-6" target="ssV_oemt4YwEF67fhfRM-2">
          <mxGeometry relative="1" as="geometry">
            <Array as="points">
              <mxPoint x="140" y="570" />
            </Array>
          </mxGeometry>
        </mxCell>
        <mxCell id="ssV_oemt4YwEF67fhfRM-37" value="&lt;font style=&quot;font-size: 14px;&quot;&gt;Bản kí duyệt&lt;/font&gt;" style="edgeLabel;html=1;align=center;verticalAlign=middle;resizable=0;points=[];" vertex="1" connectable="0" parent="ssV_oemt4YwEF67fhfRM-35">
          <mxGeometry x="0.2821" relative="1" as="geometry">
            <mxPoint x="1" as="offset" />
          </mxGeometry>
        </mxCell>
        <mxCell id="ssV_oemt4YwEF67fhfRM-6" value="&lt;font style=&quot;font-size: 18px;&quot;&gt;Người quản lý&lt;/font&gt;" style="rounded=0;whiteSpace=wrap;html=1;" vertex="1" parent="1">
          <mxGeometry x="80" y="680" width="120" height="80" as="geometry" />
        </mxCell>
        <mxCell id="ssV_oemt4YwEF67fhfRM-23" style="edgeStyle=orthogonalEdgeStyle;rounded=0;orthogonalLoop=1;jettySize=auto;html=1;exitX=1;exitY=0.75;exitDx=0;exitDy=0;entryX=0.249;entryY=0.044;entryDx=0;entryDy=0;entryPerimeter=0;" edge="1" parent="1" source="ssV_oemt4YwEF67fhfRM-3" target="ssV_oemt4YwEF67fhfRM-2">
          <mxGeometry relative="1" as="geometry" />
        </mxCell>
        <mxCell id="ssV_oemt4YwEF67fhfRM-24" value="&lt;font style=&quot;font-size: 14px;&quot;&gt;Thông tin đặt hàng&lt;/font&gt;" style="edgeLabel;html=1;align=center;verticalAlign=middle;resizable=0;points=[];" vertex="1" connectable="0" parent="ssV_oemt4YwEF67fhfRM-23">
          <mxGeometry x="-0.3465" y="3" relative="1" as="geometry">
            <mxPoint as="offset" />
          </mxGeometry>
        </mxCell>
        <mxCell id="ssV_oemt4YwEF67fhfRM-27" style="edgeStyle=orthogonalEdgeStyle;rounded=0;orthogonalLoop=1;jettySize=auto;html=1;exitX=0;exitY=1;exitDx=0;exitDy=0;entryX=0.017;entryY=0.389;entryDx=0;entryDy=0;entryPerimeter=0;" edge="1" parent="1" source="ssV_oemt4YwEF67fhfRM-3" target="ssV_oemt4YwEF67fhfRM-2">
          <mxGeometry relative="1" as="geometry">
            <Array as="points">
              <mxPoint x="90" y="360" />
              <mxPoint x="90" y="500" />
              <mxPoint x="300" y="500" />
              <mxPoint x="300" y="502" />
            </Array>
          </mxGeometry>
        </mxCell>
        <mxCell id="ssV_oemt4YwEF67fhfRM-29" value="&lt;font style=&quot;font-size: 14px;&quot;&gt;Phiếu thanh toán&lt;/font&gt;" style="edgeLabel;html=1;align=center;verticalAlign=middle;resizable=0;points=[];" vertex="1" connectable="0" parent="ssV_oemt4YwEF67fhfRM-27">
          <mxGeometry x="0.4094" y="1" relative="1" as="geometry">
            <mxPoint as="offset" />
          </mxGeometry>
        </mxCell>
        <mxCell id="ssV_oemt4YwEF67fhfRM-31" style="edgeStyle=orthogonalEdgeStyle;rounded=0;orthogonalLoop=1;jettySize=auto;html=1;entryX=0.092;entryY=-0.057;entryDx=0;entryDy=0;entryPerimeter=0;" edge="1" parent="1" source="ssV_oemt4YwEF67fhfRM-2" target="ssV_oemt4YwEF67fhfRM-6">
          <mxGeometry relative="1" as="geometry">
            <Array as="points">
              <mxPoint x="91" y="530" />
            </Array>
          </mxGeometry>
        </mxCell>
        <mxCell id="ssV_oemt4YwEF67fhfRM-33" value="&lt;font style=&quot;font-size: 14px;&quot;&gt;Bản đề xuất nhập hàng&lt;/font&gt;" style="edgeLabel;html=1;align=center;verticalAlign=middle;resizable=0;points=[];" vertex="1" connectable="0" parent="ssV_oemt4YwEF67fhfRM-31">
          <mxGeometry x="-0.4094" y="1" relative="1" as="geometry">
            <mxPoint x="-1" as="offset" />
          </mxGeometry>
        </mxCell>
        <mxCell id="ssV_oemt4YwEF67fhfRM-40" style="edgeStyle=orthogonalEdgeStyle;rounded=0;orthogonalLoop=1;jettySize=auto;html=1;entryX=1.005;entryY=0.883;entryDx=0;entryDy=0;entryPerimeter=0;" edge="1" parent="1" source="ssV_oemt4YwEF67fhfRM-2" target="ssV_oemt4YwEF67fhfRM-6">
          <mxGeometry relative="1" as="geometry">
            <Array as="points">
              <mxPoint x="420" y="750" />
              <mxPoint x="250" y="750" />
            </Array>
          </mxGeometry>
        </mxCell>
        <mxCell id="ssV_oemt4YwEF67fhfRM-41" value="&lt;font style=&quot;font-size: 14px;&quot;&gt;Bản báo cáo đơn hàng đã bán&lt;/font&gt;" style="edgeLabel;html=1;align=center;verticalAlign=middle;resizable=0;points=[];" vertex="1" connectable="0" parent="ssV_oemt4YwEF67fhfRM-40">
          <mxGeometry x="0.46" y="1" relative="1" as="geometry">
            <mxPoint x="19" as="offset" />
          </mxGeometry>
        </mxCell>
        <mxCell id="ssV_oemt4YwEF67fhfRM-44" style="edgeStyle=orthogonalEdgeStyle;rounded=0;orthogonalLoop=1;jettySize=auto;html=1;exitX=0;exitY=0.75;exitDx=0;exitDy=0;entryX=0.745;entryY=0.049;entryDx=0;entryDy=0;entryPerimeter=0;" edge="1" parent="1" source="ssV_oemt4YwEF67fhfRM-4" target="ssV_oemt4YwEF67fhfRM-2">
          <mxGeometry relative="1" as="geometry" />
        </mxCell>
        <mxCell id="ssV_oemt4YwEF67fhfRM-45" value="&lt;font style=&quot;font-size: 14px;&quot;&gt;Thông tin giá cả&lt;/font&gt;" style="edgeLabel;html=1;align=center;verticalAlign=middle;resizable=0;points=[];" vertex="1" connectable="0" parent="ssV_oemt4YwEF67fhfRM-44">
          <mxGeometry x="-0.3853" relative="1" as="geometry">
            <mxPoint as="offset" />
          </mxGeometry>
        </mxCell>
        <mxCell id="ssV_oemt4YwEF67fhfRM-46" style="edgeStyle=orthogonalEdgeStyle;rounded=0;orthogonalLoop=1;jettySize=auto;html=1;entryX=0.886;entryY=0.99;entryDx=0;entryDy=0;entryPerimeter=0;" edge="1" parent="1" source="ssV_oemt4YwEF67fhfRM-2" target="ssV_oemt4YwEF67fhfRM-4">
          <mxGeometry relative="1" as="geometry">
            <Array as="points">
              <mxPoint x="786" y="500" />
            </Array>
          </mxGeometry>
        </mxCell>
        <mxCell id="ssV_oemt4YwEF67fhfRM-47" value="&lt;font style=&quot;font-size: 14px;&quot;&gt;Phiếu thanh toán&lt;/font&gt;" style="edgeLabel;html=1;align=center;verticalAlign=middle;resizable=0;points=[];" vertex="1" connectable="0" parent="ssV_oemt4YwEF67fhfRM-46">
          <mxGeometry x="-0.3975" y="1" relative="1" as="geometry">
            <mxPoint as="offset" />
          </mxGeometry>
        </mxCell>
        <mxCell id="ssV_oemt4YwEF67fhfRM-58" style="edgeStyle=orthogonalEdgeStyle;rounded=0;orthogonalLoop=1;jettySize=auto;html=1;entryX=0.992;entryY=0.609;entryDx=0;entryDy=0;entryPerimeter=0;" edge="1" parent="1" source="ssV_oemt4YwEF67fhfRM-5" target="ssV_oemt4YwEF67fhfRM-2">
          <mxGeometry relative="1" as="geometry">
            <Array as="points">
              <mxPoint x="790" y="537" />
            </Array>
          </mxGeometry>
        </mxCell>
        <mxCell id="ssV_oemt4YwEF67fhfRM-59" value="&lt;font style=&quot;font-size: 14px;&quot;&gt;Thông tin sách cần nhập&lt;/font&gt;" style="edgeLabel;html=1;align=center;verticalAlign=middle;resizable=0;points=[];" vertex="1" connectable="0" parent="ssV_oemt4YwEF67fhfRM-58">
          <mxGeometry x="0.4269" y="-1" relative="1" as="geometry">
            <mxPoint as="offset" />
          </mxGeometry>
        </mxCell>
        <mxCell id="ssV_oemt4YwEF67fhfRM-60" style="edgeStyle=orthogonalEdgeStyle;rounded=0;orthogonalLoop=1;jettySize=auto;html=1;entryX=0.583;entryY=-0.001;entryDx=0;entryDy=0;entryPerimeter=0;" edge="1" parent="1" source="ssV_oemt4YwEF67fhfRM-2" target="ssV_oemt4YwEF67fhfRM-5">
          <mxGeometry relative="1" as="geometry">
            <Array as="points">
              <mxPoint x="750" y="560" />
            </Array>
          </mxGeometry>
        </mxCell>
        <mxCell id="ssV_oemt4YwEF67fhfRM-61" value="&lt;font style=&quot;font-size: 14px;&quot;&gt;Hoá đơn cần thanh toán&lt;/font&gt;" style="edgeLabel;html=1;align=center;verticalAlign=middle;resizable=0;points=[];" vertex="1" connectable="0" parent="ssV_oemt4YwEF67fhfRM-60">
          <mxGeometry x="-0.3317" relative="1" as="geometry">
            <mxPoint as="offset" />
          </mxGeometry>
        </mxCell>
        <mxCell id="ssV_oemt4YwEF67fhfRM-62" style="edgeStyle=orthogonalEdgeStyle;rounded=0;orthogonalLoop=1;jettySize=auto;html=1;entryX=1;entryY=0.125;entryDx=0;entryDy=0;entryPerimeter=0;" edge="1" parent="1" source="ssV_oemt4YwEF67fhfRM-2" target="ssV_oemt4YwEF67fhfRM-3">
          <mxGeometry relative="1" as="geometry">
            <Array as="points">
              <mxPoint x="420" y="290" />
            </Array>
          </mxGeometry>
        </mxCell>
        <mxCell id="ssV_oemt4YwEF67fhfRM-63" value="&lt;font style=&quot;font-size: 14px;&quot;&gt;Thông tin sách&lt;/font&gt;" style="edgeLabel;html=1;align=center;verticalAlign=middle;resizable=0;points=[];" vertex="1" connectable="0" parent="ssV_oemt4YwEF67fhfRM-62">
          <mxGeometry x="0.404" y="-2" relative="1" as="geometry">
            <mxPoint as="offset" />
          </mxGeometry>
        </mxCell>
        <mxCell id="ssV_oemt4YwEF67fhfRM-68" style="edgeStyle=orthogonalEdgeStyle;rounded=0;orthogonalLoop=1;jettySize=auto;html=1;" edge="1" parent="1" source="ssV_oemt4YwEF67fhfRM-5" target="ssV_oemt4YwEF67fhfRM-2">
          <mxGeometry relative="1" as="geometry">
            <Array as="points">
              <mxPoint x="710" y="580" />
            </Array>
          </mxGeometry>
        </mxCell>
        <mxCell id="ssV_oemt4YwEF67fhfRM-69" value="&lt;font style=&quot;font-size: 14px;&quot;&gt;Hoá đơn thanh toán&lt;/font&gt;" style="edgeLabel;html=1;align=center;verticalAlign=middle;resizable=0;points=[];" vertex="1" connectable="0" parent="ssV_oemt4YwEF67fhfRM-68">
          <mxGeometry x="0.3565" y="-1" relative="1" as="geometry">
            <mxPoint as="offset" />
          </mxGeometry>
        </mxCell>
        <mxCell id="ssV_oemt4YwEF67fhfRM-70" style="edgeStyle=orthogonalEdgeStyle;rounded=0;orthogonalLoop=1;jettySize=auto;html=1;entryX=0.821;entryY=0.884;entryDx=0;entryDy=0;entryPerimeter=0;" edge="1" parent="1" source="ssV_oemt4YwEF67fhfRM-5" target="ssV_oemt4YwEF67fhfRM-2">
          <mxGeometry relative="1" as="geometry">
            <Array as="points">
              <mxPoint x="530" y="690" />
            </Array>
          </mxGeometry>
        </mxCell>
        <mxCell id="ssV_oemt4YwEF67fhfRM-71" value="&lt;font style=&quot;font-size: 14px;&quot;&gt;Thông tin hàng nhập&lt;/font&gt;" style="edgeLabel;html=1;align=center;verticalAlign=middle;resizable=0;points=[];" vertex="1" connectable="0" parent="ssV_oemt4YwEF67fhfRM-70">
          <mxGeometry x="-0.3896" y="-2" relative="1" as="geometry">
            <mxPoint as="offset" />
          </mxGeometry>
        </mxCell>
        <mxCell id="ssV_oemt4YwEF67fhfRM-72" style="edgeStyle=orthogonalEdgeStyle;rounded=0;orthogonalLoop=1;jettySize=auto;html=1;" edge="1" parent="1" source="ssV_oemt4YwEF67fhfRM-5" target="ssV_oemt4YwEF67fhfRM-2">
          <mxGeometry relative="1" as="geometry">
            <Array as="points">
              <mxPoint x="500" y="710" />
            </Array>
          </mxGeometry>
        </mxCell>
        <mxCell id="ssV_oemt4YwEF67fhfRM-73" value="&lt;font style=&quot;font-size: 14px;&quot;&gt;Thông tin hoá đơn bán sách&lt;/font&gt;" style="edgeLabel;html=1;align=center;verticalAlign=middle;resizable=0;points=[];" vertex="1" connectable="0" parent="ssV_oemt4YwEF67fhfRM-72">
          <mxGeometry x="-0.377" y="-1" relative="1" as="geometry">
            <mxPoint as="offset" />
          </mxGeometry>
        </mxCell>
        <mxCell id="ssV_oemt4YwEF67fhfRM-74" style="edgeStyle=orthogonalEdgeStyle;rounded=0;orthogonalLoop=1;jettySize=auto;html=1;entryX=-0.011;entryY=0.619;entryDx=0;entryDy=0;entryPerimeter=0;" edge="1" parent="1" source="ssV_oemt4YwEF67fhfRM-2" target="ssV_oemt4YwEF67fhfRM-5">
          <mxGeometry relative="1" as="geometry">
            <Array as="points">
              <mxPoint x="470" y="729" />
            </Array>
          </mxGeometry>
        </mxCell>
        <mxCell id="ssV_oemt4YwEF67fhfRM-75" value="&lt;font style=&quot;font-size: 14px;&quot;&gt;Thông tin đặt sách&lt;/font&gt;" style="edgeLabel;html=1;align=center;verticalAlign=middle;resizable=0;points=[];" vertex="1" connectable="0" parent="ssV_oemt4YwEF67fhfRM-74">
          <mxGeometry x="0.3864" y="2" relative="1" as="geometry">
            <mxPoint as="offset" />
          </mxGeometry>
        </mxCell>
        <mxCell id="ssV_oemt4YwEF67fhfRM-76" style="edgeStyle=orthogonalEdgeStyle;rounded=0;orthogonalLoop=1;jettySize=auto;html=1;entryX=0.542;entryY=1.025;entryDx=0;entryDy=0;entryPerimeter=0;" edge="1" parent="1" source="ssV_oemt4YwEF67fhfRM-5" target="ssV_oemt4YwEF67fhfRM-2">
          <mxGeometry relative="1" as="geometry">
            <Array as="points">
              <mxPoint x="452" y="750" />
            </Array>
          </mxGeometry>
        </mxCell>
        <mxCell id="ssV_oemt4YwEF67fhfRM-77" value="&lt;font style=&quot;font-size: 14px;&quot;&gt;Bản báo cáo hàng tháng&lt;/font&gt;" style="edgeLabel;html=1;align=center;verticalAlign=middle;resizable=0;points=[];" vertex="1" connectable="0" parent="ssV_oemt4YwEF67fhfRM-76">
          <mxGeometry x="-0.3819" relative="1" as="geometry">
            <mxPoint as="offset" />
          </mxGeometry>
        </mxCell>
      </root>
    </mxGraphModel>
  </diagram>
</mxfile>
